{
    "asset" : {
        "generator" : "Khronos glTF Blender I/O v1.1.45",
        "version" : "2.0"
    },
    "scene" : 0,
    "scenes" : [
        {
            "name" : "Scene",
            "nodes" : [
                0
            ]
        }
    ],
    "nodes" : [
        {
            "mesh" : 0,
            "name" : "dummy"
        }
    ],
    "meshes" : [
        {
            "name" : "dummy",
            "primitives" : [
                {
                    "attributes" : {
                        "POSITION" : 0,
                        "NORMAL" : 1
                    },
                    "indices" : 2
                }
            ]
        }
    ],
    "accessors" : [
        {
            "bufferView" : 0,
            "componentType" : 5126,
            "count" : 423,
            "max" : [
                0.8469744324684143,
                1.718580961227417,
                0.2466317117214203
            ],
            "min" : [
                -0.8530258536338806,
                -3.647804760475992e-07,
                -0.27403637766838074
            ],
            "type" : "VEC3"
        },
        {
            "bufferView" : 1,
            "componentType" : 5126,
            "count" : 423,
            "type" : "VEC3"
        },
        {
            "bufferView" : 2,
            "componentType" : 5123,
            "count" : 1926,
            "type" : "SCALAR"
        }
    ],
    "bufferViews" : [
        {
            "buffer" : 0,
            "byteLength" : 5076,
            "byteOffset" : 0
        },
        {
            "buffer" : 0,
            "byteLength" : 5076,
            "byteOffset" : 5076
        },
        {
            "buffer" : 0,
            "byteLength" : 3852,
            "byteOffset" : 10152
        }
    ],
    "buffers" : [
        {
            "byteLength" : 14004,
            "uri" : "dummy.bin"
        }
    ]
}
