{
    "asset" : {
        "generator" : "Khronos glTF Blender I/O v1.1.45",
        "version" : "2.0"
    },
    "scene" : 0,
    "scenes" : [
        {
            "name" : "Scene",
            "nodes" : [
                0,
                1,
                2,
                3,
                4,
                5,
                6,
                7
            ]
        }
    ],
    "nodes" : [
        {
            "mesh" : 0,
            "name" : "roadTile_027"
        },
        {
            "mesh" : 1,
            "name" : "roadTile_034"
        },
        {
            "mesh" : 2,
            "name" : "roadTile_141"
        },
        {
            "mesh" : 3,
            "name" : "roadTile_150"
        },
        {
            "mesh" : 4,
            "name" : "roadTile_162"
        },
        {
            "mesh" : 5,
            "name" : "roadTile_163"
        },
        {
            "mesh" : 6,
            "name" : "roadTile_035"
        },
        {
            "mesh" : 7,
            "name" : "roadTile_030"
        }
    ],
    "meshes" : [
        {
            "name" : "roadTile_027",
            "primitives" : [
                {
                    "attributes" : {
                        "POSITION" : 0,
                        "NORMAL" : 1,
                        "COLOR_0" : 2
                    },
                    "indices" : 3
                }
            ]
        },
        {
            "name" : "roadTile_034",
            "primitives" : [
                {
                    "attributes" : {
                        "POSITION" : 4,
                        "NORMAL" : 5,
                        "COLOR_0" : 6
                    },
                    "indices" : 7
                }
            ]
        },
        {
            "name" : "roadTile_141",
            "primitives" : [
                {
                    "attributes" : {
                        "POSITION" : 8,
                        "NORMAL" : 9,
                        "COLOR_0" : 10
                    },
                    "indices" : 11
                }
            ]
        },
        {
            "name" : "roadTile_150",
            "primitives" : [
                {
                    "attributes" : {
                        "POSITION" : 12,
                        "NORMAL" : 13,
                        "COLOR_0" : 14
                    },
                    "indices" : 15
                }
            ]
        },
        {
            "name" : "roadTile_162",
            "primitives" : [
                {
                    "attributes" : {
                        "POSITION" : 16,
                        "NORMAL" : 17,
                        "COLOR_0" : 18
                    },
                    "indices" : 19
                }
            ]
        },
        {
            "name" : "roadTile_163",
            "primitives" : [
                {
                    "attributes" : {
                        "POSITION" : 20,
                        "NORMAL" : 21,
                        "COLOR_0" : 22
                    },
                    "indices" : 23
                }
            ]
        },
        {
            "name" : "roadTile_035",
            "primitives" : [
                {
                    "attributes" : {
                        "POSITION" : 24,
                        "NORMAL" : 25,
                        "COLOR_0" : 26
                    },
                    "indices" : 27
                }
            ]
        },
        {
            "name" : "roadTile_030",
            "primitives" : [
                {
                    "attributes" : {
                        "POSITION" : 28,
                        "NORMAL" : 29,
                        "COLOR_0" : 30
                    },
                    "indices" : 31
                }
            ]
        }
    ],
    "accessors" : [
        {
            "bufferView" : 0,
            "componentType" : 5126,
            "count" : 114,
            "max" : [
                3,
                0.6300004720687866,
                1.0263187277814723e-07
            ],
            "min" : [
                0,
                0,
                -3
            ],
            "type" : "VEC3"
        },
        {
            "bufferView" : 1,
            "componentType" : 5126,
            "count" : 114,
            "type" : "VEC3"
        },
        {
            "bufferView" : 2,
            "componentType" : 5126,
            "count" : 114,
            "type" : "VEC4"
        },
        {
            "bufferView" : 3,
            "componentType" : 5123,
            "count" : 120,
            "type" : "SCALAR"
        },
        {
            "bufferView" : 4,
            "componentType" : 5126,
            "count" : 64,
            "max" : [
                3,
                0.6000005006790161,
                9.77524123868534e-08
            ],
            "min" : [
                0,
                6.317303540124988e-16,
                -3
            ],
            "type" : "VEC3"
        },
        {
            "bufferView" : 5,
            "componentType" : 5126,
            "count" : 64,
            "type" : "VEC3"
        },
        {
            "bufferView" : 6,
            "componentType" : 5126,
            "count" : 64,
            "type" : "VEC4"
        },
        {
            "bufferView" : 7,
            "componentType" : 5123,
            "count" : 66,
            "type" : "SCALAR"
        },
        {
            "bufferView" : 8,
            "componentType" : 5126,
            "count" : 397,
            "max" : [
                3,
                0.6300004720687866,
                1.0263991612191603e-07
            ],
            "min" : [
                0,
                1.2633588523130903e-15,
                -3
            ],
            "type" : "VEC3"
        },
        {
            "bufferView" : 9,
            "componentType" : 5126,
            "count" : 397,
            "type" : "VEC3"
        },
        {
            "bufferView" : 10,
            "componentType" : 5126,
            "count" : 397,
            "type" : "VEC4"
        },
        {
            "bufferView" : 11,
            "componentType" : 5123,
            "count" : 420,
            "type" : "SCALAR"
        },
        {
            "bufferView" : 12,
            "componentType" : 5126,
            "count" : 284,
            "max" : [
                3,
                0.6300004720687866,
                1.0263988059477924e-07
            ],
            "min" : [
                0,
                2.707433348593188e-16,
                -3
            ],
            "type" : "VEC3"
        },
        {
            "bufferView" : 13,
            "componentType" : 5126,
            "count" : 284,
            "type" : "VEC3"
        },
        {
            "bufferView" : 14,
            "componentType" : 5126,
            "count" : 284,
            "type" : "VEC4"
        },
        {
            "bufferView" : 15,
            "componentType" : 5123,
            "count" : 300,
            "type" : "SCALAR"
        },
        {
            "bufferView" : 16,
            "componentType" : 5126,
            "count" : 170,
            "max" : [
                3,
                0.6300004124641418,
                8.960638098187701e-08
            ],
            "min" : [
                0,
                8.468225978094675e-21,
                -3
            ],
            "type" : "VEC3"
        },
        {
            "bufferView" : 17,
            "componentType" : 5126,
            "count" : 170,
            "type" : "VEC3"
        },
        {
            "bufferView" : 18,
            "componentType" : 5126,
            "count" : 170,
            "type" : "VEC4"
        },
        {
            "bufferView" : 19,
            "componentType" : 5123,
            "count" : 180,
            "type" : "SCALAR"
        },
        {
            "bufferView" : 20,
            "componentType" : 5126,
            "count" : 36,
            "max" : [
                3,
                0.5500004887580872,
                8.960638098187701e-08
            ],
            "min" : [
                0,
                0,
                -3
            ],
            "type" : "VEC3"
        },
        {
            "bufferView" : 21,
            "componentType" : 5126,
            "count" : 36,
            "type" : "VEC3"
        },
        {
            "bufferView" : 22,
            "componentType" : 5126,
            "count" : 36,
            "type" : "VEC4"
        },
        {
            "bufferView" : 23,
            "componentType" : 5123,
            "count" : 36,
            "type" : "SCALAR"
        },
        {
            "bufferView" : 24,
            "componentType" : 5126,
            "count" : 132,
            "max" : [
                3,
                0.6300004720687866,
                8.960638098187701e-08
            ],
            "min" : [
                0,
                8.122121110069457e-16,
                -3
            ],
            "type" : "VEC3"
        },
        {
            "bufferView" : 25,
            "componentType" : 5126,
            "count" : 132,
            "type" : "VEC3"
        },
        {
            "bufferView" : 26,
            "componentType" : 5126,
            "count" : 132,
            "type" : "VEC4"
        },
        {
            "bufferView" : 27,
            "componentType" : 5123,
            "count" : 138,
            "type" : "SCALAR"
        },
        {
            "bufferView" : 28,
            "componentType" : 5126,
            "count" : 230,
            "max" : [
                3,
                0.6300004720687866,
                1.026397882242236e-07
            ],
            "min" : [
                0,
                4.704579071020261e-20,
                -3
            ],
            "type" : "VEC3"
        },
        {
            "bufferView" : 29,
            "componentType" : 5126,
            "count" : 230,
            "type" : "VEC3"
        },
        {
            "bufferView" : 30,
            "componentType" : 5126,
            "count" : 230,
            "type" : "VEC4"
        },
        {
            "bufferView" : 31,
            "componentType" : 5123,
            "count" : 240,
            "type" : "SCALAR"
        }
    ],
    "bufferViews" : [
        {
            "buffer" : 0,
            "byteLength" : 1368,
            "byteOffset" : 0
        },
        {
            "buffer" : 0,
            "byteLength" : 1368,
            "byteOffset" : 1368
        },
        {
            "buffer" : 0,
            "byteLength" : 1824,
            "byteOffset" : 2736
        },
        {
            "buffer" : 0,
            "byteLength" : 240,
            "byteOffset" : 4560
        },
        {
            "buffer" : 0,
            "byteLength" : 768,
            "byteOffset" : 4800
        },
        {
            "buffer" : 0,
            "byteLength" : 768,
            "byteOffset" : 5568
        },
        {
            "buffer" : 0,
            "byteLength" : 1024,
            "byteOffset" : 6336
        },
        {
            "buffer" : 0,
            "byteLength" : 132,
            "byteOffset" : 7360
        },
        {
            "buffer" : 0,
            "byteLength" : 4764,
            "byteOffset" : 7492
        },
        {
            "buffer" : 0,
            "byteLength" : 4764,
            "byteOffset" : 12256
        },
        {
            "buffer" : 0,
            "byteLength" : 6352,
            "byteOffset" : 17020
        },
        {
            "buffer" : 0,
            "byteLength" : 840,
            "byteOffset" : 23372
        },
        {
            "buffer" : 0,
            "byteLength" : 3408,
            "byteOffset" : 24212
        },
        {
            "buffer" : 0,
            "byteLength" : 3408,
            "byteOffset" : 27620
        },
        {
            "buffer" : 0,
            "byteLength" : 4544,
            "byteOffset" : 31028
        },
        {
            "buffer" : 0,
            "byteLength" : 600,
            "byteOffset" : 35572
        },
        {
            "buffer" : 0,
            "byteLength" : 2040,
            "byteOffset" : 36172
        },
        {
            "buffer" : 0,
            "byteLength" : 2040,
            "byteOffset" : 38212
        },
        {
            "buffer" : 0,
            "byteLength" : 2720,
            "byteOffset" : 40252
        },
        {
            "buffer" : 0,
            "byteLength" : 360,
            "byteOffset" : 42972
        },
        {
            "buffer" : 0,
            "byteLength" : 432,
            "byteOffset" : 43332
        },
        {
            "buffer" : 0,
            "byteLength" : 432,
            "byteOffset" : 43764
        },
        {
            "buffer" : 0,
            "byteLength" : 576,
            "byteOffset" : 44196
        },
        {
            "buffer" : 0,
            "byteLength" : 72,
            "byteOffset" : 44772
        },
        {
            "buffer" : 0,
            "byteLength" : 1584,
            "byteOffset" : 44844
        },
        {
            "buffer" : 0,
            "byteLength" : 1584,
            "byteOffset" : 46428
        },
        {
            "buffer" : 0,
            "byteLength" : 2112,
            "byteOffset" : 48012
        },
        {
            "buffer" : 0,
            "byteLength" : 276,
            "byteOffset" : 50124
        },
        {
            "buffer" : 0,
            "byteLength" : 2760,
            "byteOffset" : 50400
        },
        {
            "buffer" : 0,
            "byteLength" : 2760,
            "byteOffset" : 53160
        },
        {
            "buffer" : 0,
            "byteLength" : 3680,
            "byteOffset" : 55920
        },
        {
            "buffer" : 0,
            "byteLength" : 480,
            "byteOffset" : 59600
        }
    ],
    "buffers" : [
        {
            "byteLength" : 60080,
            "uri" : "kenny_road_tiles.bin"
        }
    ]
}
